<svg width="692" height="751" viewBox="0 0 692 751" fill="none" xmlns="http://www.w3.org/2000/svg">
<path fill-rule="evenodd" clip-rule="evenodd" d="M520.588 191.397C539.959 191.397 555.662 175.694 555.662 156.324C555.662 136.953 539.959 121.25 520.588 121.25C501.218 121.25 485.515 136.953 485.515 156.324C485.515 175.694 501.218 191.397 520.588 191.397Z" fill="#F2F2F2"/>
<path fill-rule="evenodd" clip-rule="evenodd" d="M520.588 130.515C521.685 130.515 522.574 129.626 522.574 128.529C522.574 127.433 521.685 126.544 520.588 126.544C519.492 126.544 518.603 127.433 518.603 128.529C518.603 129.626 519.492 130.515 520.588 130.515Z" fill="black" fill-opacity="0.1"/>
<path fill-rule="evenodd" clip-rule="evenodd" d="M492.794 158.309C493.891 158.309 494.78 157.42 494.78 156.324C494.78 155.227 493.891 154.338 492.794 154.338C491.698 154.338 490.809 155.227 490.809 156.324C490.809 157.42 491.698 158.309 492.794 158.309Z" fill="black" fill-opacity="0.1"/>
<path fill-rule="evenodd" clip-rule="evenodd" d="M548.382 158.309C549.479 158.309 550.368 157.42 550.368 156.324C550.368 155.227 549.479 154.338 548.382 154.338C547.286 154.338 546.397 155.227 546.397 156.324C546.397 157.42 547.286 158.309 548.382 158.309Z" fill="black" fill-opacity="0.1"/>
<path fill-rule="evenodd" clip-rule="evenodd" d="M520.588 186.103C521.685 186.103 522.574 185.214 522.574 184.118C522.574 183.021 521.685 182.132 520.588 182.132C519.492 182.132 518.603 183.021 518.603 184.118C518.603 185.214 519.492 186.103 520.588 186.103Z" fill="black" fill-opacity="0.1"/>
<path fill-rule="evenodd" clip-rule="evenodd" d="M520.588 132.5L521.912 155.662H519.265L520.588 132.5Z" fill="#AFB9C5"/>
<path fill-rule="evenodd" clip-rule="evenodd" d="M532.301 168.036L520.134 157.741L522.006 155.869L532.301 168.036Z" fill="#AFB9C5"/>
<path fill-rule="evenodd" clip-rule="evenodd" d="M520.588 158.971C522.05 158.971 523.235 157.785 523.235 156.324C523.235 154.862 522.05 153.676 520.588 153.676C519.126 153.676 517.941 154.862 517.941 156.324C517.941 157.785 519.126 158.971 520.588 158.971Z" fill="#C5CFD6"/>
<g opacity="0.345889" clip-path="url(#clip0)">
<path fill-rule="evenodd" clip-rule="evenodd" d="M483.393 340.549C478.83 289.561 234.021 191.148 188.573 239.443C143.125 287.738 186.817 378.375 282.06 401.585C377.302 424.795 487.956 391.537 483.393 340.549Z" fill="#F2F2F2"/>
<path fill-rule="evenodd" clip-rule="evenodd" d="M332.081 373.679C336.168 330.362 555.458 246.757 596.169 287.785C636.879 328.814 626.574 415.112 541.26 434.83C455.946 454.548 327.994 416.995 332.081 373.679Z" fill="#DDE3E9"/>
</g>
<g clip-path="url(#clip1)">
<path fill-rule="evenodd" clip-rule="evenodd" d="M200.625 203.755C216.158 203.755 228.75 197.088 228.75 188.865C228.75 180.641 216.158 173.975 200.625 173.975C185.092 173.975 172.5 180.641 172.5 188.865C172.5 197.088 185.092 203.755 200.625 203.755Z" fill="#F2F2F2"/>
<path fill-rule="evenodd" clip-rule="evenodd" d="M233.382 199.122C233.382 180.848 218.716 166.034 200.625 166.034C182.534 166.034 167.868 180.848 167.868 199.122" fill="#DDE3E9"/>
<rect x="198.971" y="65" width="3.30882" height="105.882" fill="#DDE3E9"/>
</g>
<g opacity="0.7" clip-path="url(#clip2)">
<path fill-rule="evenodd" clip-rule="evenodd" d="M251.912 170.22C263.522 170.22 272.934 164.841 272.934 158.204C272.934 151.568 263.522 146.188 251.912 146.188C240.301 146.188 230.889 151.568 230.889 158.204C230.889 164.841 240.301 170.22 251.912 170.22Z" fill="#F2F2F2"/>
<path fill-rule="evenodd" clip-rule="evenodd" d="M276.397 166.482C276.397 151.735 265.435 139.779 251.912 139.779C238.389 139.779 227.427 151.735 227.427 166.482" fill="#DDE3E9"/>
<rect x="250.588" y="65" width="3.30882" height="90" fill="#DDE3E9"/>
</g>
<g clip-path="url(#clip3)">
<path d="M537.794 220.009L550.082 207.716C552.149 205.648 555.502 205.648 557.57 207.716L590.283 240.442C592.267 242.428 593.382 245.121 593.382 247.928V464.706" stroke="#CBCBCB" stroke-width="5.29412"/>
<rect x="573.53" y="464.044" width="39.0441" height="4.63235" rx="1.98529" fill="#AFB9C5"/>
<path d="M514.301 212.795C522.829 204.266 536.656 204.267 545.185 212.795C553.713 221.323 553.713 235.15 545.185 243.679L532.082 256.781L501.198 225.897L514.301 212.795Z" fill="#C5CFD6"/>
<path fill-rule="evenodd" clip-rule="evenodd" d="M514.122 244.025C522.65 252.554 530.925 258.105 532.605 256.426C534.285 254.746 528.733 246.47 520.205 237.942C511.676 229.414 503.401 223.862 501.721 225.542C500.041 227.221 505.593 235.497 514.122 244.025Z" fill="#F2F2F2"/>
</g>
<path fill-rule="evenodd" clip-rule="evenodd" d="M193.186 311.291C195.081 311.059 197.104 311.141 198.867 311.889C202.616 313.481 203.682 317.909 203.63 321.509C203.575 325.383 202.752 329.615 205.698 332.737C207.052 334.172 208.736 335.27 210.065 336.731C211.486 338.293 212.601 340.08 213.426 341.999C214.942 345.524 215.685 349.669 214.3 353.367C213.079 356.622 210.01 359.561 210.673 363.262C211.365 367.124 215.258 370.076 217.692 372.952C220.447 376.208 222.983 380.368 223.4 384.637C223.8 388.727 222.019 392.865 219.286 395.957C213.826 402.136 205.618 405.166 197.342 405.147C193.829 405.139 189.851 404.98 186.818 403.092C185.881 402.508 185.387 401.853 184.83 400.943C184.33 400.127 183.67 399.596 182.907 399.019C181.229 397.75 180.017 396.04 179.244 394.127C176.241 386.693 178.641 377.497 182.844 370.896C183.84 369.332 184.656 367.827 184.172 365.963C183.667 364.017 182.426 362.262 181.328 360.589C180.243 358.936 179.005 357.359 178.157 355.572C177.269 353.699 177.019 351.739 177.176 349.69C177.471 345.84 179.133 342.288 181.485 339.193C183.751 336.211 186.412 333.358 186.418 329.451C186.424 325.31 183.656 321.626 184.835 317.416C185.324 315.673 186.304 313.884 187.885 312.839C189.401 311.837 191.403 311.509 193.186 311.291Z" fill="#DDE3E9"/>
<path fill-rule="evenodd" clip-rule="evenodd" d="M191.947 317.911C191.982 317.355 192.642 317.021 193.161 317.166C193.845 317.357 193.832 317.996 193.814 318.565C193.758 320.314 194.012 322.014 194.432 323.711C195.306 327.24 196.921 330.491 198.201 333.88C199.479 337.267 200.079 340.763 199.329 344.347C198.622 347.726 197.511 351.017 196.788 354.4C196.15 357.381 195.472 360.526 196.443 363.5C197.377 366.363 199.443 368.694 200.931 371.281C204.011 376.637 205.377 382.578 205.56 388.692C205.645 391.531 205.569 394.397 204.91 397.181C204.531 398.785 204.021 400.952 202.647 402.059C202.014 402.569 200.93 402.746 200.397 401.99C199.896 401.281 200.336 400.183 200.494 399.427C201.183 396.156 201.321 392.812 201.156 389.491C200.997 386.273 200.617 383.061 199.604 379.988C198.664 377.136 197.236 374.575 195.556 372.08C193.843 369.538 192.063 366.99 191.356 363.978C190.637 360.919 191.221 357.806 192.002 354.805C192.828 351.63 193.909 348.547 195.028 345.459C196.118 342.45 196.504 339.603 195.902 336.453C194.714 330.231 191.532 324.391 191.947 317.911Z" fill="#C5CFD6"/>
<path fill-rule="evenodd" clip-rule="evenodd" d="M243.238 318.841C245.584 319.553 247.913 320.703 249.586 322.505C253.141 326.337 252.05 332.128 250.088 336.359C247.975 340.912 244.773 345.488 246.578 350.712C247.407 353.114 248.802 355.289 249.589 357.709C250.43 360.295 250.793 362.989 250.747 365.687C250.661 370.644 249.343 375.933 245.763 379.585C242.611 382.8 237.457 384.678 236.279 389.401C235.049 394.328 238.055 399.845 239.39 404.513C240.9 409.795 241.676 416.035 239.909 421.3C238.215 426.346 233.94 430.312 229.1 432.548C219.429 437.015 208.201 436.328 198.505 432C194.388 430.163 189.806 427.905 187.247 424.095C186.457 422.917 186.223 421.886 186.05 420.519C185.896 419.294 185.403 418.323 184.812 417.243C183.515 414.87 182.997 412.217 183.101 409.552C183.508 399.198 191.184 389.572 199.604 383.952C201.598 382.62 203.35 381.265 203.768 378.809C204.204 376.245 203.676 373.524 203.273 370.974C202.875 368.455 202.256 365.946 202.206 363.391C202.154 360.715 202.897 358.266 204.164 355.924C206.545 351.525 210.371 348.189 214.767 345.752C219.001 343.404 223.629 341.414 225.701 336.797C227.898 331.903 226.598 326.106 230.206 321.741C231.7 319.933 233.796 318.328 236.203 317.915C238.51 317.518 241.031 318.171 243.238 318.841Z" fill="#DDE3E9"/>
<path fill-rule="evenodd" clip-rule="evenodd" d="M238.446 326.934C238.779 326.294 239.725 326.244 240.256 326.688C240.955 327.273 240.605 328.023 240.286 328.687C239.305 330.729 238.711 332.875 238.314 335.105C237.488 339.742 237.674 344.438 237.395 349.123C237.116 353.803 235.986 358.259 233.233 362.109C230.636 365.74 227.614 369.055 224.996 372.682C222.689 375.879 220.249 379.247 219.827 383.278C219.42 387.158 220.615 391.002 221 394.846C221.796 402.802 220.282 410.554 217.294 417.891C215.906 421.297 214.316 424.651 212.088 427.603C210.805 429.303 209.074 431.602 206.888 432.193C205.879 432.465 204.52 432.106 204.292 430.932C204.078 429.83 205.167 428.76 205.748 427.948C208.266 424.435 210.179 420.548 211.726 416.528C213.225 412.634 214.463 408.631 214.888 404.461C215.283 400.591 214.954 396.81 214.296 392.975C213.625 389.066 212.878 385.116 213.628 381.178C214.39 377.178 216.703 373.798 219.188 370.653C221.816 367.327 224.695 364.243 227.62 361.172C230.471 358.18 232.414 355.01 233.36 350.965C235.229 342.974 234.567 334.39 238.446 326.934Z" fill="#C5CFD6"/>
<path fill-rule="evenodd" clip-rule="evenodd" d="M170.717 348.235C174.618 348.235 178.047 350.303 180.41 353.237C183.176 356.671 183.735 360.866 184.858 364.959C185.417 366.996 186.378 369.019 188.063 370.403C189.595 371.662 191.54 371.913 193.374 372.528C197.04 373.757 200 376.718 201.168 380.33C202.594 384.737 201.084 389.181 201.344 393.646C201.583 397.748 205.626 400.306 208.88 402.272C212.088 404.211 214.978 406.026 215.944 409.802C216.969 413.808 217.312 418.279 215.893 422.236C213.531 428.824 206.616 431.725 199.934 432.175C193.871 432.583 186.246 431.942 181.692 427.541C178.968 424.907 177.981 421.223 178.103 417.558C178.179 415.279 178.631 413.021 179.214 410.819C179.628 409.258 180.187 407.704 180.346 406.091C180.769 401.8 176.803 400.976 173.427 399.797C169.137 398.3 166.134 395.472 164.045 391.531C162.1 387.863 161.284 383.744 162.45 379.705C163.046 377.642 164.126 375.771 165.591 374.179C166.235 373.479 167.144 372.895 167.726 372.159C168.269 371.471 168.151 370.581 167.964 369.776C167.098 366.057 164.401 362.978 163.437 359.266C162.566 355.915 163.081 351.745 166.144 349.584C167.468 348.65 169.1 348.246 170.717 348.235Z" fill="#C5CFD6"/>
<path fill-rule="evenodd" clip-rule="evenodd" d="M176.032 357.924C180.167 362.328 181.29 368.303 181.62 374.094C181.805 377.342 181.613 380.767 182.567 383.917C183.383 386.613 185.297 388.674 187.27 390.622C191.24 394.543 195.669 398.529 196.83 404.203C197.512 407.533 197.052 410.973 197.994 414.266C198.85 417.26 200.357 420.201 202.191 422.729C203.668 424.765 205.591 426.323 207.205 428.221C207.697 428.8 208.403 429.653 208.2 430.471C207.962 431.428 206.742 431.732 205.876 431.581C203.858 431.23 202.16 429.304 200.84 427.903C198.911 425.854 197.271 423.651 195.939 421.18C194.46 418.435 193.268 415.523 192.759 412.443C192.231 409.249 192.494 405.92 191.288 402.854C189.259 397.696 184.336 394.651 180.778 390.631C176.343 385.621 177.005 379.386 177.459 373.223C177.708 369.836 177.956 366.012 176.245 362.919C175.592 361.739 174.135 360.639 173.855 359.297C173.597 358.068 175.001 356.826 176.032 357.924Z" fill="#AFB9C5"/>
<path fill-rule="evenodd" clip-rule="evenodd" d="M180.442 430.294C180.442 455.48 184.552 468.676 206.25 468.676C227.949 468.676 232.059 455.48 232.059 430.294H180.442Z" fill="#89C5CC"/>
<rect x="269.78" y="393.897" width="25.1471" height="5.95588" rx="1.32353" fill="#AFB9C5"/>
<path fill-rule="evenodd" clip-rule="evenodd" d="M281.173 345.588H283.015V345.588H284.195C284.538 355.792 286.13 365.498 288.971 374.706H293.272C298.937 374.706 303.529 379.298 303.529 384.963C303.529 390.628 298.937 395.221 293.272 395.221H271.434C265.769 395.221 261.177 390.628 261.177 384.963C261.177 379.298 265.769 374.706 271.434 374.706H276.397C280.659 360.894 281.173 345.588 281.173 345.588Z" fill="#DDE3E9"/>
<path fill-rule="evenodd" clip-rule="evenodd" d="M258.941 299.714C258.941 299.714 270.316 298.603 281.691 298.603C293.066 298.603 304.441 299.714 304.441 299.714L307.5 352.294C307.5 352.294 294.596 353.529 281.691 353.529C268.787 353.529 255.882 352.294 255.882 352.294L258.941 299.714Z" fill="#C5CFD6"/>
<path fill-rule="evenodd" clip-rule="evenodd" d="M240.662 468.676V414.412V399.853H254.559L323.382 399.853V468.677H309.485V414.412H254.559V468.676H240.662Z" fill="#F2F2F2"/>
<path fill-rule="evenodd" clip-rule="evenodd" d="M517.532 282.196C523.377 296.086 533.314 305.737 538.576 320.18C541.697 328.744 542.998 338.057 543.077 347.595C543.12 352.775 543.03 357.959 543.005 363.139C542.982 368.191 542.845 373.211 542.416 378.231C541.985 383.277 541.502 388.263 541.29 393.341C541.124 397.297 541.048 401.898 539.707 405.507C538.641 408.377 535.93 408.797 535.211 405.317C534.812 403.382 534.862 401.221 534.906 399.233C534.963 396.682 535.111 394.134 535.187 391.583C535.491 381.347 535.096 371.109 535.303 360.869C535.504 350.864 536.79 340.87 535.367 330.932C534.192 322.725 531.207 315.678 527.776 308.922C524.475 302.422 520.883 296.08 518.653 288.686C518.012 286.562 517.517 284.362 517.28 282.079C517.383 282.03 517.467 282.07 517.532 282.196Z" fill="#C1DEE2"/>
<path fill-rule="evenodd" clip-rule="evenodd" d="M515.938 309.599C517.096 310.435 517.743 311.658 518.525 312.864C519.498 314.364 520.642 315.718 521.614 317.219C523.643 320.348 525.424 323.669 527.273 326.925C530.783 333.105 533.448 339.692 534.768 346.842C536.136 354.252 536.505 361.899 537.079 369.42C537.688 377.39 538.301 385.418 538.381 393.42C538.417 397.004 538.611 400.81 538.181 404.369C537.913 406.585 536.913 408.473 534.658 408.456C529.869 408.418 527.621 403.113 526.682 398.763C525.299 392.358 525.023 385.554 525.242 379.003C525.507 371.105 526.878 363.324 527.471 355.456C528.099 347.126 527.744 338.944 524.881 331.101C523.434 327.138 521.755 323.27 520.247 319.333C519.605 317.656 519.079 315.934 518.212 314.373C517.247 312.637 516.05 311.061 515.294 309.191C515.509 309.327 515.724 309.463 515.938 309.599Z" fill="#89C5CC"/>
<path fill-rule="evenodd" clip-rule="evenodd" d="M571.104 292.99C571.25 292.875 571.397 292.761 571.544 292.647C571.121 294.429 570.357 295.876 569.773 297.505C569.249 298.97 568.982 300.627 568.629 302.227C567.799 305.987 566.839 309.661 566.055 313.453C564.503 320.955 564.797 329.038 565.815 337.361C566.776 345.224 568.297 353.074 569.021 360.936C569.622 367.455 569.88 374.177 569.307 380.398C568.918 384.622 567.641 389.666 564.164 389.239C562.527 389.039 561.673 387.068 561.329 384.844C560.777 381.272 560.661 377.515 560.446 373.963C559.965 366.034 559.869 358.129 559.774 350.282C559.684 342.878 559.437 335.327 559.932 328.109C560.409 321.145 561.901 314.869 564.035 309.078C565.159 306.028 566.23 302.906 567.493 299.998C568.098 298.603 568.838 297.371 569.444 295.978C569.931 294.857 570.319 293.706 571.104 292.99Z" fill="#C1DEE2"/>
<path fill-rule="evenodd" clip-rule="evenodd" d="M517.418 332.553C518.051 331.49 519.445 334.996 519.657 335.437C519.567 335.217 519.477 334.998 519.386 334.779C520.643 336.869 521.793 339.045 522.508 341.442C523.216 343.814 523.823 346.234 524.487 348.624C525.733 353.107 527.339 357.462 528.468 361.985C529.568 366.393 529.845 370.726 529.579 375.285C529.302 380.023 529.133 384.835 529.455 389.57C529.61 391.832 530.345 393.939 530.848 396.117C531.353 398.297 531.75 400.505 532.346 402.658C532.483 402.378 532.5 403.315 532.5 403.386C532.496 403.924 532.421 404.375 532.248 404.885C531.804 406.196 530.972 407.31 529.706 407.672C527.419 408.326 525.295 406.245 524.557 404.048C523.499 400.895 522.916 397.412 522.412 394.098C521.949 391.06 521.84 388.003 521.977 384.923C522.248 378.849 523.347 372.854 523.645 366.782C523.968 360.171 522.658 353.959 521.562 347.524C521.033 344.423 520.529 341.351 519.501 338.397C519.084 337.201 518.542 336.145 517.973 335.041C517.649 334.412 516.994 333.291 517.418 332.553Z" fill="#C1DEE2"/>
<path fill-rule="evenodd" clip-rule="evenodd" d="M535.976 322.226C535.713 329.8 535.261 337.316 534.251 344.81C533.221 352.457 532.037 360.079 531.046 367.733C530.08 375.184 529.069 382.758 529.203 390.313C529.303 395.878 528.38 405.292 534.56 408.038C540.82 410.819 542.163 398.942 542.574 395.021C543.361 387.5 543.106 379.899 542.724 372.336C542.332 364.574 541.676 356.851 540.865 349.118C539.963 340.527 539.255 331.899 538.687 323.284C538.406 319.023 538.337 314.769 538.415 310.507C538.488 306.485 538.335 302.421 536.905 298.603C536.83 298.657 536.756 298.711 536.681 298.766" fill="#69A1AC"/>
<path fill-rule="evenodd" clip-rule="evenodd" d="M568.29 346.22C567.164 347.86 566.03 349.484 564.967 351.221C563.064 354.329 561.344 357.785 560.827 362.229C559.744 371.53 560.613 381.574 560.822 391.159C560.865 393.118 560.618 395.017 561.39 396.881C562.09 398.572 563.398 399.86 564.646 399.853C567.316 399.838 566.909 393.298 566.913 390.42C566.921 385.375 566.355 380.279 566.404 375.239C566.453 370.246 566.756 365.239 567.48 360.496C568.213 355.696 569.287 351.087 570.703 346.786C570.9 346.189 572.31 341.576 570.978 342.371" fill="#89C5CC"/>
<path fill-rule="evenodd" clip-rule="evenodd" d="M556.497 296.618C554.741 296.618 554.752 305.37 554.699 306.494C554.509 310.551 554.553 314.609 554.433 318.667C554.169 327.523 553.844 336.455 552.514 345.208C551.798 349.921 550.968 354.612 550.075 359.288C549.179 363.978 547.977 368.662 547.387 373.411C546.822 377.977 547.141 382.632 547.219 387.22C547.297 391.836 547.436 396.461 548.041 401.036C548.19 402.165 548.365 403.291 548.552 404.413C548.708 405.349 548.617 406.509 548.881 407.397C549.304 408.821 551.117 409.287 552.338 409.065C555.642 408.461 557.753 404.313 558.881 401.282C560.323 397.412 561.087 393.214 561.842 389.135C562.697 384.514 563.198 379.823 563.433 375.118C563.911 365.557 563.298 355.986 562.613 346.455C562.232 341.155 561.792 335.878 561.119 330.61C560.448 325.365 559.588 320.144 559.027 314.883C558.62 311.06 558.219 307.232 557.956 303.395C557.893 302.48 557.84 296.618 556.497 296.618Z" fill="#69A1AC"/>
<path fill-rule="evenodd" clip-rule="evenodd" d="M554.299 360.239C554.013 351.049 550.319 310.686 549.479 299.574C549.269 296.792 547.245 285.212 546.983 282.059C546.271 282.95 546.332 296.822 546.34 300.01C546.348 303.163 545.957 306.264 545.756 309.4C545.551 312.6 540.82 353.927 540.206 357.002C538.985 363.119 538.167 369.396 537.537 375.65C536.923 381.747 535.968 388.178 536.79 394.306C536.979 395.717 537.278 397.105 537.764 398.401C538.29 399.801 538.65 401.096 539.073 402.561C539.752 404.922 540.981 406.993 542.869 407.967C546.74 409.965 548.818 405.442 549.872 401.505C551.555 395.217 552.635 388.826 553.141 382.223C553.701 374.916 554.528 367.595 554.299 360.239Z" fill="#89C5CC"/>
<rect x="513.309" y="387.279" width="60.2206" height="60.2206" rx="1.32353" fill="white"/>
<rect x="506.691" y="393.897" width="6.61765" height="74.7794" rx="1.32353" fill="#C5CFD6"/>
<rect x="539.78" y="393.897" width="6.61765" height="74.7794" rx="1.32353" fill="#C5CFD6"/>
<rect x="573.53" y="393.897" width="6.61765" height="74.7794" rx="1.32353" fill="#C5CFD6"/>
<path fill-rule="evenodd" clip-rule="evenodd" d="M439.163 303.871C434.543 306.655 430.004 308.001 427.874 307.452C422.531 306.074 422.04 286.529 426.174 278.824C430.308 271.118 451.56 267.76 452.631 283.026C453.003 288.325 450.778 293.054 447.491 296.912L453.385 324.385H436.263L439.163 303.871Z" fill="#B28B67"/>
<path fill-rule="evenodd" clip-rule="evenodd" d="M430.032 273.742C430.424 273.508 431.245 273.015 431.66 272.836C431.759 272.793 432.447 272.301 432.466 272.307C432.987 272.483 434.497 273.133 434.627 273.694C434.647 273.737 434.667 273.777 434.686 273.811C434.9 274.2 435.096 274.599 435.283 275.003C435.694 275.888 436.049 276.814 436.388 277.732C437.048 279.521 437.621 281.351 438.148 283.186C438.685 285.053 439.14 286.942 439.65 288.818C440.384 291.516 441.323 294.148 442.052 296.845C442.517 298.567 442.776 300.31 442.654 302.082C442.652 302.103 442.652 302.124 442.65 302.146C442.649 302.155 442.648 302.164 442.647 302.173C442.626 302.445 442.597 302.718 442.557 302.992C442.523 303.226 442.488 303.462 442.451 303.697C441.786 302.369 441.277 300.907 440.738 299.519C440.686 299.383 440.635 299.246 440.586 299.109C440.412 298.827 440.235 298.548 440.056 298.27C438.925 296.514 437.79 294.765 436.706 292.977C434.756 289.762 432.824 286.48 430.513 283.528C429.83 282.656 429.131 281.797 428.457 280.919C428.074 280.418 427.7 279.91 427.339 279.392C427.08 279.022 425.957 277.732 426.364 276.957C426.572 276.561 429.015 274.35 430.032 273.742Z" fill="#2C2C2C"/>
<path fill-rule="evenodd" clip-rule="evenodd" d="M431.536 272.9C431.155 273.029 431.341 272.235 431.71 271.956C433.421 270.662 439.964 270.192 445.658 271.374C449.472 272.166 453.908 274.137 456.954 276.67C459.7 278.954 461.589 282.615 462.561 286.153C463.582 289.867 463.737 293.739 463.168 297.548C463.043 298.385 462.775 299.182 462.625 300.001C462.457 300.923 462.37 301.811 462.07 302.708C461.886 303.258 461.573 303.796 461.417 304.348C461.237 304.979 461.347 305.562 461.477 306.203C461.69 307.248 461.954 308.291 462.329 309.289C462.893 310.788 463.576 312.191 464.005 313.746C464.575 315.816 466.96 322.55 465.217 324.385H432.031C432.867 322.106 435.375 319.423 435.883 316.983C436.182 315.545 436.324 312.406 436.356 312.292C437.104 307.137 438.564 304.675 439.478 303.782C440.393 302.888 441.611 302.614 441.674 301.839C441.933 298.633 440.659 295.562 439.724 292.571C438.61 289.006 437.794 285.352 436.646 281.799C436.137 280.225 433.517 272.235 431.536 272.9Z" fill="#8991DC"/>
<path fill-rule="evenodd" clip-rule="evenodd" d="M435.817 295.097C436.194 287.492 435.817 284.521 434.063 278.955H435.145C436.855 281.164 438.285 287.92 436.678 295.097H435.817ZM457.015 294.739L457.015 294.739L457.015 294.738C457.204 294.277 457.397 293.804 457.597 293.319L458.285 293.65C456.115 301.586 453.476 307.712 444.414 312.848L443.709 312.354C452.279 306.328 454.117 301.831 457.015 294.739ZM444.166 285.247C444.075 285.936 443.988 286.606 443.903 287.261V287.261C442.601 297.314 441.774 303.69 434.513 315.253L435.336 315.504C443.296 304.781 444.558 296.029 444.934 285.309L444.166 285.247ZM452.006 317.835L452.71 318.691C449.183 319.429 446.785 322.023 444.036 324.997C441.128 328.143 437.826 331.714 432.379 333.962L431.368 333.349C437.313 330.258 440.079 327.186 442.494 324.503C444.994 321.726 447.119 319.366 452.006 317.835Z" fill="black" fill-opacity="0.2"/>
<path fill-rule="evenodd" clip-rule="evenodd" d="M484.33 413.559H429.217L421.996 502.019H504.036L484.33 413.559Z" fill="#C5CFD6"/>
<path fill-rule="evenodd" clip-rule="evenodd" d="M484.33 413.559H467.38L457.234 502.019H504.036L484.33 413.559Z" fill="black" fill-opacity="0.1"/>
<path fill-rule="evenodd" clip-rule="evenodd" d="M398.936 431.084C405.13 444.219 414.807 476.103 414.807 476.103L406.591 479.857C406.591 479.857 385.745 446.341 373.005 423.43C373.599 428.587 374.203 434.394 374.764 440.498C376.091 454.959 374.764 486.201 374.05 495.226C373.601 500.898 365.895 499.709 365.175 495.211C365.053 494.449 364.557 491.774 363.816 487.783C360.182 468.214 350.673 416.996 350.656 404.455C350.65 399.408 360.508 394.875 366.384 398.404C370.421 394.097 378.06 391.615 382.448 398.729C385.238 403.252 391.867 416.091 398.936 431.084Z" fill="#B28B67"/>
<path fill-rule="evenodd" clip-rule="evenodd" d="M414.22 464.299L386.021 397.499C379.266 386.632 360.326 399.71 362.629 406.012C367.86 420.321 394.459 466.645 396.017 470.908L414.22 464.299Z" fill="#1F28CF"/>
<path fill-rule="evenodd" clip-rule="evenodd" d="M413.675 472.189C414.169 471.515 415.126 471.356 415.765 471.893C416.931 472.874 418.608 474.385 419.214 475.434C420.179 477.105 421.473 480.633 421.473 480.633C419.534 481.752 386.627 500.751 386.627 500.751C386.627 500.751 382.676 497.045 385.396 494.997C388.116 492.949 389.885 491.543 389.885 491.543L401.912 474.972C402.148 474.647 402.606 474.581 402.925 474.826L405.424 476.75C405.424 476.75 408.863 476.45 410.556 475.472C411.588 474.877 412.847 473.318 413.675 472.189Z" fill="#E4E4E4"/>
<path fill-rule="evenodd" clip-rule="evenodd" d="M373.878 490.808C374.642 490.471 375.551 490.812 375.836 491.597C376.355 493.029 377.052 495.177 377.052 496.388C377.052 498.317 376.409 502.019 376.409 502.019C374.171 502.019 336.173 502.019 336.173 502.019C336.173 502.019 334.604 496.834 337.983 496.421C341.362 496.007 343.598 495.674 343.598 495.674L362.299 487.337C362.666 487.173 363.096 487.345 363.249 487.717L364.451 490.633C364.451 490.633 367.579 492.092 369.535 492.092C370.726 492.092 372.596 491.372 373.878 490.808Z" fill="#E4E4E4"/>
<path fill-rule="evenodd" clip-rule="evenodd" d="M348.68 409.587C348.68 428.54 357.681 472.749 357.686 476.922L377.052 476.937C377.052 476.937 372.8 417.766 374.037 417.129C375.273 416.491 424.724 422.066 439.555 422.066C460.941 422.066 469.788 408.58 470.506 383.596H428.14C419.514 384.519 374.52 393.595 357.81 396.715C350.656 398.05 348.68 404.366 348.68 409.587Z" fill="#2B44FF"/>
<path fill-rule="evenodd" clip-rule="evenodd" d="M503.752 415.634C501.661 411.392 491.216 356.808 491.216 356.808L475.595 356.867C475.595 356.867 493.441 414.688 494.542 417.415C495.971 420.958 493.543 426.105 491.896 429.596C491.642 430.136 491.406 430.636 491.206 431.085C493.49 432.107 494.588 430.871 495.745 429.569C497.052 428.097 498.435 426.54 501.69 428.055C502.948 428.64 504.138 429.331 505.301 430.007C509.317 432.342 513.007 434.487 518.026 431.39C518.822 430.899 519.694 429.05 517.587 427.605C512.338 424.006 504.774 417.707 503.752 415.634ZM372.186 394.365L392.395 374.651L399.107 386.265L378.092 398.654C372.823 406.955 369.728 410.541 368.808 409.414C368.032 408.463 368.388 407.421 368.716 406.461C368.971 405.713 369.209 405.016 368.882 404.45C368.135 403.157 363.916 403.897 359.942 404.771C355.968 405.644 356.888 403.692 357.732 402.674C361.488 399.643 366.306 396.873 372.186 394.365Z" fill="#B28B67"/>
<path fill-rule="evenodd" clip-rule="evenodd" d="M443.615 312.494L437.446 311.436C427.728 345.787 377.799 369.202 374.734 382.044C373.61 386.753 376.999 389.133 375.249 390.568L383.267 396.437C384.625 394.853 387.522 397.751 393.573 395.724C399.624 393.697 443.615 353.169 443.615 312.494Z" fill="#DB2721"/>
<path fill-rule="evenodd" clip-rule="evenodd" d="M454.586 305.322C456.159 305.213 457.522 306.398 457.632 307.97L457.924 312.149C469.534 321.083 498.307 347.779 505.805 397.477C506.593 402.697 505.169 405.493 504.031 407.728C503.252 409.256 502.607 410.521 502.897 412.12L492.403 415.016C492.403 413.836 491.08 412.938 489.374 411.78C486.893 410.096 483.601 407.861 482.383 403.405C481.229 399.182 479.54 393.908 477.521 388.04C477.33 395.811 475.857 402.958 472.646 408.877C464.637 423.645 418.351 407.45 413.515 392.384C410.935 384.345 414.596 377.595 419.439 368.669C425.586 357.338 433.636 342.499 433.238 317.061L432.724 309.712C432.614 308.14 433.8 306.776 435.372 306.666L454.586 305.322Z" fill="#FF4133"/>
<path fill-rule="evenodd" clip-rule="evenodd" d="M116.991 587.372C117.283 589.326 110.213 590.601 104.127 589.711C98.0416 588.822 95.2499 585.348 98.1538 583.497C101.058 581.646 116.7 585.418 116.991 587.372Z" fill="#83BCFF" fill-opacity="0.4"/>
<path fill-rule="evenodd" clip-rule="evenodd" d="M386.978 744.242C387.721 749.267 369.692 752.545 354.174 750.258C338.656 747.97 331.537 739.038 338.942 734.278C346.347 729.519 386.234 739.218 386.978 744.242Z" fill="#83BCFF" fill-opacity="0.4"/>
<path fill-rule="evenodd" clip-rule="evenodd" d="M22.99 29.3554C23.3252 42.476 15.1945 51.0341 8.19619 45.0616C1.19788 39.0891 -2.01261 15.7658 1.32687 3.3382C4.66634 -9.08938 22.6547 16.2348 22.99 29.3554Z" fill="#83BCFF" fill-opacity="0.4"/>
<path fill-rule="evenodd" clip-rule="evenodd" d="M638.024 118.731C637.236 131.572 656.326 139.948 672.757 134.103C689.188 128.257 696.725 105.43 688.885 93.2672C681.044 81.104 638.811 105.889 638.024 118.731Z" fill="#83BCFF" fill-opacity="0.4"/>
<path fill-rule="evenodd" clip-rule="evenodd" d="M660.01 220.86C659.689 230.631 667.466 237.004 674.16 232.557C680.854 228.109 683.925 210.74 680.731 201.486C677.537 192.231 660.33 211.09 660.01 220.86Z" fill="#83BCFF" fill-opacity="0.4"/>
<path fill-rule="evenodd" clip-rule="evenodd" d="M31.0236 410.731C30.2364 423.572 49.326 431.948 65.7568 426.103C82.1876 420.257 89.7253 397.43 81.8848 385.267C74.0442 373.104 31.8107 397.889 31.0236 410.731Z" fill="#83BCFF" fill-opacity="0.4"/>
<defs>
<clipPath id="clip0">
<rect width="448.676" height="213.75" fill="white" transform="translate(170.515 226.471)"/>
</clipPath>
<clipPath id="clip1">
<rect width="65.5147" height="138.971" fill="white" transform="translate(167.868 65)"/>
</clipPath>
<clipPath id="clip2">
<rect width="48.9706" height="105.221" fill="white" transform="translate(227.427 65)"/>
</clipPath>
<clipPath id="clip3">
<rect width="114.485" height="272.647" fill="white" transform="translate(498.088 196.029)"/>
</clipPath>
</defs>
</svg>
