<svg width="22" height="21" viewBox="0 0 22 21" fill="none" xmlns="http://www.w3.org/2000/svg">
<path d="M15.25 6.83331C16.9739 6.83331 18.6272 7.51813 19.8462 8.73712C21.0652 9.95611 21.75 11.6094 21.75 13.3333V20.9166H17.4167V13.3333C17.4167 12.7587 17.1884 12.2076 16.7821 11.8012C16.3757 11.3949 15.8246 11.1666 15.25 11.1666C14.6754 11.1666 14.1243 11.3949 13.7179 11.8012C13.3116 12.2076 13.0833 12.7587 13.0833 13.3333V20.9166H8.75V13.3333C8.75 11.6094 9.43482 9.95611 10.6538 8.73712C11.8728 7.51813 13.5261 6.83331 15.25 6.83331Z" fill="#454545"/>
<path d="M4.41683 7.91669H0.0834961V20.9167H4.41683V7.91669Z" fill="#454545"/>
<path d="M2.25016 4.66665C3.44678 4.66665 4.41683 3.6966 4.41683 2.49998C4.41683 1.30336 3.44678 0.333313 2.25016 0.333313C1.05355 0.333313 0.0834961 1.30336 0.0834961 2.49998C0.0834961 3.6966 1.05355 4.66665 2.25016 4.66665Z" fill="#454545"/>
</svg>
