<svg width="147" height="48" viewBox="0 0 147 48" fill="none" xmlns="http://www.w3.org/2000/svg">
<path d="M29.0053 29.8392L28.6127 30.6804C25.6682 36.1567 21.1206 38.8619 14.9699 38.7959C10.9131 38.7629 7.41241 37.3278 4.46793 34.4907C1.52345 31.6536 0.0348501 28.2062 0.00213368 24.1485C-0.0632992 20.0577 1.37622 16.5608 4.3207 13.6577C7.2979 10.7216 10.8476 9.22062 14.9699 9.15464C17.9144 9.12165 20.6626 9.89691 23.2144 11.4804C25.6355 12.9979 27.3694 14.9113 28.4164 17.2206L28.9562 18.4577H24.7358C22.6419 14.8289 19.4357 12.9649 15.1171 12.866C12.2381 12.8 9.65348 13.8557 7.36333 16.033C4.97503 18.2763 3.78088 20.932 3.78088 24C3.78088 27.068 4.89324 29.7072 7.11796 31.9175C9.34268 34.0948 11.9764 35.167 15.019 35.134C19.3703 35.068 22.6256 33.3031 24.7848 29.8392H29.0053Z" fill="url(#paint0_linear)"/>
<path d="M41.9541 13.1629C40.2201 13.2289 38.8133 13.7072 37.7336 14.5979C36.654 15.4887 35.9179 16.2639 35.5253 16.9237C34.9037 18.0124 34.5929 19.4639 34.5929 21.2783V38.1526H30.6669V9.94639H34.1512V13.9546C34.9364 12.4371 36.0978 11.266 37.6355 10.4412C39.0423 9.68247 40.4818 9.33608 41.9541 9.40206V13.1629Z" fill="url(#paint1_linear)"/>
<path d="M69.8837 25.3361H44.7575C45.0519 28.1732 46.2461 30.5155 48.3399 32.3629C50.4338 34.2103 52.9038 35.1175 55.7502 35.0845C60.1669 35.0186 63.324 32.9567 65.2216 28.899H69.1966C68.1497 31.934 66.383 34.3423 63.8966 36.1237C61.4101 37.9052 58.6456 38.8124 55.603 38.8454C51.7751 38.9113 48.389 37.5093 45.4445 34.6392C42.5 31.7361 40.9951 28.2887 40.9296 24.2969C40.8315 20.0742 42.3037 16.4454 45.3463 13.4103C48.4217 10.3423 52.0369 8.92371 56.1918 9.15464C59.9215 9.38557 63.1604 10.9361 65.9086 13.8062C68.5587 16.6433 69.8837 19.8103 69.8837 23.3072V25.3361ZM66.2031 21.8722C65.6796 19.233 64.4527 17.1052 62.5225 15.4887C60.5922 13.8392 58.2857 12.9979 55.603 12.9649C52.9202 12.932 50.5646 13.7402 48.5362 15.3897C46.5405 17.0392 45.2809 19.2 44.7575 21.8722H66.2031Z" fill="url(#paint2_linear)"/>
<path d="M97.9153 38.1526H94.1365V21.6742C94.1365 19.299 93.2695 17.2536 91.5356 15.5381C89.8343 13.8227 87.8386 12.9649 85.5485 12.9649C83.2256 12.9649 81.1972 13.8227 79.4632 15.5381C77.7619 17.2536 76.9113 19.299 76.9113 21.6742V38.1526H73.1326V22.0701C73.1326 18.4082 74.3104 15.3732 76.6659 12.9649C79.0215 10.5237 81.9824 9.30309 85.5485 9.30309C89.0818 9.30309 92.0263 10.5237 94.3819 12.9649C96.7375 15.3732 97.9153 18.4082 97.9153 22.0701V38.1526Z" fill="url(#paint3_linear)"/>
<path d="M105.571 38.1526H101.842V0H105.571V38.1526Z" fill="url(#paint4_linear)"/>
<path d="M135 9.94639L119.149 48H115.125L119.345 37.2619L108.647 9.94639H112.72L121.652 32.3134L131.074 9.94639H135Z" fill="url(#paint5_linear)"/>
<circle cx="141" cy="33" r="6" fill="#FC5226"/>
<defs>
<linearGradient id="paint0_linear" x1="-7.74919" y1="24.1676" x2="70.9257" y2="62.6449" gradientUnits="userSpaceOnUse">
<stop offset="0.716511" stop-color="#1561AD"/>
<stop offset="1" stop-color="#1AA7A2"/>
</linearGradient>
<linearGradient id="paint1_linear" x1="-7.74919" y1="24.1676" x2="70.9257" y2="62.6449" gradientUnits="userSpaceOnUse">
<stop offset="0.716511" stop-color="#1561AD"/>
<stop offset="1" stop-color="#1AA7A2"/>
</linearGradient>
<linearGradient id="paint2_linear" x1="-7.74919" y1="24.1676" x2="70.9257" y2="62.6449" gradientUnits="userSpaceOnUse">
<stop offset="0.716511" stop-color="#1561AD"/>
<stop offset="1" stop-color="#1AA7A2"/>
</linearGradient>
<linearGradient id="paint3_linear" x1="-7.74919" y1="24.1676" x2="70.9257" y2="62.6449" gradientUnits="userSpaceOnUse">
<stop offset="0.716511" stop-color="#1561AD"/>
<stop offset="1" stop-color="#1AA7A2"/>
</linearGradient>
<linearGradient id="paint4_linear" x1="-7.74919" y1="24.1676" x2="70.9257" y2="62.6449" gradientUnits="userSpaceOnUse">
<stop offset="0.716511" stop-color="#1561AD"/>
<stop offset="1" stop-color="#1AA7A2"/>
</linearGradient>
<linearGradient id="paint5_linear" x1="-7.74919" y1="24.1676" x2="70.9257" y2="62.6449" gradientUnits="userSpaceOnUse">
<stop offset="0.716511" stop-color="#1561AD"/>
<stop offset="1" stop-color="#1AA7A2"/>
</linearGradient>
</defs>
</svg>
