<svg width="340" height="111" viewBox="0 0 340 111" fill="none" xmlns="http://www.w3.org/2000/svg">
<path d="M67.0747 69.0031L66.1668 70.9484C59.3577 83.6124 48.8414 89.868 34.6179 89.7155C25.2365 89.6392 17.1412 86.3206 10.3321 79.7598C3.52297 73.199 0.0805909 65.2268 0.00493414 55.8433C-0.146379 46.3835 3.18252 38.2969 9.99163 31.5835C16.8764 24.7938 25.0851 21.3227 34.6179 21.1701C41.427 21.0938 47.7822 22.8866 53.6834 26.5485C59.282 30.0577 63.2918 34.4825 65.7128 39.8227L66.9612 42.6835H57.2014C52.3594 34.2918 44.9451 29.9814 34.9584 29.7526C28.3006 29.6 22.3237 32.0412 17.0277 37.0763C11.5048 42.2639 8.74329 48.4052 8.74329 55.5C8.74329 62.5948 11.3156 68.6979 16.4603 73.8093C21.6049 78.8443 27.6953 81.3237 34.7314 81.2474C44.7937 81.0948 52.3216 77.0134 57.3149 69.0031H67.0747Z" fill="#5FAD7A"/>
<path d="M97.0188 30.4392C93.009 30.5917 89.7557 31.6979 87.259 33.7577C84.7624 35.8175 83.0601 37.6103 82.1522 39.1361C80.7147 41.6536 79.996 45.0103 79.996 49.2062V88.2278H70.9172V23.001H78.9746V32.2701C80.7904 28.7608 83.4762 26.0526 87.0321 24.1454C90.2853 22.3907 93.6142 21.5897 97.0188 21.7423V30.4392Z" fill="#5FAD7A"/>
<path d="M161.606 58.5897H103.502C104.183 65.1505 106.944 70.567 111.786 74.8392C116.628 79.1113 122.34 81.2093 128.922 81.133C139.136 80.9804 146.437 76.2124 150.825 66.8289H160.017C157.596 73.8474 153.511 79.4165 147.761 83.5361C142.011 87.6557 135.618 89.7536 128.582 89.8299C119.73 89.9825 111.9 86.7402 105.09 80.1031C98.2813 73.3897 94.8011 65.4175 94.6498 56.1866C94.4228 46.4216 97.8273 38.0299 104.863 31.0113C111.975 23.9165 120.335 20.6361 129.944 21.1701C138.569 21.7041 146.059 25.2897 152.414 31.9268C158.542 38.4876 161.606 45.8113 161.606 53.8979V58.5897ZM153.095 50.5794C151.884 44.4763 149.047 39.5557 144.583 35.8175C140.119 32.0031 134.786 30.0577 128.582 29.9814C122.378 29.9052 116.931 31.7742 112.24 35.5887C107.625 39.4031 104.712 44.4 103.502 50.5794H153.095Z" fill="#5FAD7A"/>
<path d="M226.429 88.2278H217.691V50.1216C217.691 44.6289 215.686 39.899 211.676 35.932C207.742 31.965 203.127 29.9814 197.831 29.9814C192.459 29.9814 187.768 31.965 183.759 35.932C179.824 39.899 177.857 44.6289 177.857 50.1216V88.2278H169.119V51.0371C169.119 42.5691 171.843 35.5505 177.29 29.9814C182.737 24.3361 189.584 21.5134 197.831 21.5134C206.002 21.5134 212.811 24.3361 218.258 29.9814C223.705 35.5505 226.429 42.5691 226.429 51.0371V88.2278Z" fill="#5FAD7A"/>
<path d="M244.134 88.2278H235.509V0H244.134V88.2278Z" fill="#5FAD7A"/>
<path d="M312.188 23.001L275.532 111H266.226L275.986 86.168L251.246 23.001H260.665L281.32 74.7247L303.109 23.001H312.188Z" fill="#5FAD7A"/>
<circle cx="326.125" cy="80.475" r="13.875" fill="#5FAD7A"/>
</svg>
