<svg width="15" height="20" viewBox="0 0 15 20" fill="none" xmlns="http://www.w3.org/2000/svg">
<path d="M3.711 6.97835V4.84821C3.711 2.87571 5.24799 1.10795 7.29699 1.0051C9.48198 0.895517 11.29 2.56618 11.29 4.6425V6.97835M7.5 13.9756V11.5249M12.0962 7.63553C14.6346 10.0752 14.6346 14.0306 12.0962 16.4703C9.55778 18.9099 5.44222 18.9099 2.90381 16.4703C0.365398 14.0306 0.365398 10.0752 2.90381 7.63553C5.44222 5.19588 9.55778 5.19588 12.0962 7.63553ZM7.49701 10.0642C7.08302 10.0642 6.74702 10.3872 6.75002 10.7852C6.75002 11.1831 7.08602 11.5061 7.50001 11.5061C7.914 11.5061 8.25 11.1831 8.25 10.7852C8.25 10.3872 7.914 10.0642 7.49701 10.0642Z" stroke="white" stroke-opacity="0.58" stroke-width="1.5" stroke-linecap="round" stroke-linejoin="round"/>
</svg>
