<svg width="26" height="26" viewBox="0 0 26 26" fill="none" xmlns="http://www.w3.org/2000/svg">
<path d="M18.333 2.25H7.49967C4.50813 2.25 2.08301 4.67512 2.08301 7.66667V18.5C2.08301 21.4915 4.50813 23.9167 7.49967 23.9167H18.333C21.3245 23.9167 23.7497 21.4915 23.7497 18.5V7.66667C23.7497 4.67512 21.3245 2.25 18.333 2.25Z" fill="#454545"/>
<path d="M17.2497 12.4008C17.3834 13.3024 17.2294 14.2232 16.8096 15.0323C16.3898 15.8413 15.7256 16.4974 14.9114 16.9071C14.0973 17.3169 13.1747 17.4596 12.2748 17.3148C11.3749 17.17 10.5436 16.7451 9.89909 16.1006C9.25459 15.4561 8.82973 14.6248 8.68492 13.7249C8.54012 12.825 8.68275 11.9024 9.09254 11.0882C9.50232 10.2741 10.1584 9.60989 10.9674 9.1901C11.7764 8.77031 12.6972 8.61631 13.5988 8.75C14.5185 8.88638 15.3699 9.31492 16.0273 9.97233C16.6848 10.6297 17.1133 11.4812 17.2497 12.4008Z" fill="#454545" stroke="white" stroke-width="2" stroke-linecap="round" stroke-linejoin="round"/>
<path d="M18.875 8.20831H18.885" stroke="white" stroke-width="2" stroke-linecap="round" stroke-linejoin="round"/>
</svg>
