<svg width="24" height="20" viewBox="0 0 24 20" fill="none" xmlns="http://www.w3.org/2000/svg">
<path d="M23.8333 0.416716C22.7959 1.14848 21.6473 1.70817 20.4317 2.07422C19.7792 1.32402 18.9121 0.792299 17.9476 0.55097C16.9831 0.30964 15.9678 0.370345 15.0389 0.724874C14.1101 1.0794 13.3125 1.71065 12.7541 2.53324C12.1956 3.35583 11.9033 4.33008 11.9167 5.32422V6.40755C10.0129 6.45692 8.12638 6.03468 6.42526 5.17845C4.72414 4.32222 3.26118 3.05857 2.16667 1.50005C2.16667 1.50005 -2.16667 11.2501 7.58333 15.5834C5.35224 17.0978 2.69442 17.8572 0 17.75C9.75 23.1667 21.6667 17.7501 21.6667 5.29172C21.6657 4.98996 21.6367 4.68894 21.58 4.39255C22.6857 3.30217 23.4659 1.92549 23.8333 0.416716Z" fill="#454545"/>
</svg>
