<?xml version="1.0" standalone="no"?>
<!DOCTYPE svg PUBLIC "-//W3C//DTD SVG 20010904//EN"
 "http://www.w3.org/TR/2001/REC-SVG-20010904/DTD/svg10.dtd">
<svg version="1.0" xmlns="http://www.w3.org/2000/svg"
 width="128.000000pt" height="128.000000pt" viewBox="0 0 128.000000 128.000000"
 preserveAspectRatio="xMidYMid meet">
<metadata>
Created by potrace 1.11, written by Peter Selinger 2001-2013
</metadata>
<g transform="translate(0.000000,128.000000) scale(0.100000,-0.100000)"
fill="#000000" stroke="none">
<path d="M1002 1210 c-72 -44 -88 -150 -33 -212 71 -78 187 -62 237 34 61 118
-88 248 -204 178z"/>
<path d="M174 1115 c-28 -19 -48 -69 -40 -101 15 -59 92 -93 147 -64 53 29 61
121 12 160 -30 24 -89 27 -119 5z"/>
<path d="M577 1110 c-34 -27 -44 -78 -23 -118 20 -38 44 -52 89 -52 38 0 83
37 93 77 8 30 -12 79 -40 98 -30 22 -89 19 -119 -5z"/>
<path d="M193 715 c-40 -17 -67 -66 -58 -105 8 -36 58 -80 91 -80 39 0 80 26
94 60 32 78 -49 159 -127 125z"/>
<path d="M613 723 c-12 -2 -34 -18 -48 -34 -75 -90 44 -209 133 -134 59 49 46
132 -23 161 -19 8 -36 13 -37 13 -2 -1 -13 -4 -25 -6z"/>
<path d="M1023 723 c-35 -7 -73 -59 -73 -100 0 -47 47 -93 95 -93 40 0 90 38
99 75 10 40 -18 94 -58 110 -20 8 -37 14 -38 14 -2 -1 -13 -4 -25 -6z"/>
<path d="M195 311 c-37 -16 -60 -51 -60 -93 0 -33 6 -45 33 -69 45 -40 84 -39
128 5 43 43 45 83 7 126 -30 32 -75 45 -108 31z"/>
<path d="M604 310 c-32 -13 -64 -59 -64 -92 0 -21 11 -41 34 -64 42 -42 82
-45 124 -9 56 47 51 118 -10 155 -36 22 -51 23 -84 10z"/>
<path d="M1014 310 c-30 -12 -64 -58 -64 -87 0 -55 48 -103 103 -103 33 0 67
28 83 66 12 29 12 39 0 68 -8 20 -28 42 -45 50 -33 18 -46 19 -77 6z"/>
</g>
</svg>
